<svg
	viewBox="0 0 632 87"
	fill="none"
	xmlns="http://www.w3.org/2000/svg"
	id="logo">
	<path
		d="M183.6 75L177.9 59.3H146.4L140.7 75H130.8L156.9 5H167.4L193.5 75H183.6ZM149.6 50.6H174.7L162.1 16.1L149.6 50.6ZM228.058 5C237.591 5 245.491 8.4 251.758 15.2C258.091 21.9333 261.258 30.2 261.258 40C261.258 49.8 258.091 58.1 251.758 64.9C245.491 71.6333 237.591 75 228.058 75H200.758V5H228.058ZM228.058 66.2C235.191 66.2 241.024 63.7 245.558 58.7C250.091 53.7 252.358 47.4667 252.358 40C252.358 32.5333 250.091 26.3 245.558 21.3C241.024 16.3 235.191 13.8 228.058 13.8H210.058V66.2H228.058ZM313.035 75L297.335 48.2H280.835V75H271.535V5H299.535C305.535 5 310.668 7.13333 314.935 11.4C319.202 15.6 321.335 20.7 321.335 26.7C321.335 31.2333 319.968 35.3667 317.235 39.1C314.568 42.8333 311.102 45.4667 306.835 47L323.335 75H313.035ZM280.835 13.7V39.8H299.535C303.002 39.8 305.935 38.5333 308.335 36C310.802 33.4 312.035 30.3 312.035 26.7C312.035 23.1 310.802 20.0333 308.335 17.5C305.935 14.9667 303.002 13.7 299.535 13.7H280.835ZM377.768 75L372.068 59.3H340.568L334.868 75H324.968L351.068 5H361.568L387.668 75H377.768ZM343.768 50.6H368.868L356.268 16.1L343.768 50.6ZM415.67 76.3C409.137 76.3 403.537 74.7667 398.87 71.7C394.27 68.6333 391.037 64.4333 389.17 59.1L397.17 54.5C399.904 62.9667 406.137 67.2 415.87 67.2C420.67 67.2 424.337 66.2333 426.87 64.3C429.404 62.3 430.67 59.6667 430.67 56.4C430.67 53.0667 429.404 50.5667 426.87 48.9C424.337 47.2333 420.104 45.4667 414.17 43.6C411.237 42.6667 409.004 41.9333 407.47 41.4C405.937 40.8 404.004 39.9333 401.67 38.8C399.404 37.6 397.704 36.4 396.57 35.2C395.437 33.9333 394.404 32.3 393.47 30.3C392.604 28.3 392.17 26.0333 392.17 23.5C392.17 17.4333 394.304 12.6333 398.57 9.1C402.837 5.49999 408.037 3.69999 414.17 3.69999C419.704 3.69999 424.504 5.1 428.57 7.9C432.704 10.7 435.804 14.4 437.87 19L430.07 23.5C427.07 16.3 421.77 12.7 414.17 12.7C410.37 12.7 407.304 13.6333 404.97 15.5C402.637 17.3667 401.47 19.9 401.47 23.1C401.47 26.1667 402.57 28.5 404.77 30.1C406.97 31.7 410.77 33.3667 416.17 35.1C418.104 35.7 419.47 36.1333 420.27 36.4C421.07 36.6667 422.304 37.1333 423.97 37.8C425.704 38.4667 426.97 39 427.77 39.4C428.57 39.8 429.637 40.3667 430.97 41.1C432.37 41.8333 433.404 42.5333 434.07 43.2C434.737 43.8667 435.504 44.7 436.37 45.7C437.304 46.6333 437.97 47.6 438.37 48.6C438.77 49.6 439.104 50.7667 439.37 52.1C439.704 53.3667 439.87 54.7333 439.87 56.2C439.87 62.3333 437.637 67.2333 433.17 70.9C428.704 74.5 422.87 76.3 415.67 76.3ZM492.144 5V13.8H471.444V75H462.244V13.8H441.644V5H492.144ZM509.648 66.2H542.148V75H500.348V5H541.648V13.8H509.648V35.3H539.148V44H509.648V66.2ZM552.375 5H561.675V75H552.375V5ZM621.791 75L616.091 59.3H584.591L578.891 75H568.991L595.091 5H605.591L631.691 75H621.791ZM587.791 50.6H612.891L600.291 16.1L587.791 50.6Z"
		fill="#142251" />
	<path
		d="M97.9842 86.4373H82.8003C81.6856 86.4373 80.7822 85.5557 80.7822 84.4678C80.7822 83.3798 81.6856 82.4982 82.8003 82.4982H94.5438L84.9818 65.7853L74.1705 85.3962C73.8149 86.034 73.1326 86.4373 72.3927 86.4373H62.2444C61.5333 86.4373 60.8702 86.0715 60.505 85.4713C60.1398 84.8711 60.1302 84.1301 60.4666 83.5205L77.6782 52.8145L75.5351 48.8379L64.1953 68.3644C63.6475 69.3117 62.4078 69.6493 61.4468 69.1054C60.4762 68.5708 60.1398 67.3703 60.6876 66.423L73.8534 43.7546C74.2089 43.1356 74.8817 42.7511 75.612 42.7511C75.6216 42.7511 75.6312 42.7511 75.6408 42.7511C76.3808 42.7605 77.0535 43.1638 77.3995 43.8015L81.7625 51.9141C82.0796 52.4956 82.07 53.199 81.7432 53.7711L65.6464 82.4888H71.1818L83.1655 60.7489C83.5115 60.1112 84.1938 59.7172 84.9242 59.7079C84.9338 59.7079 84.9338 59.7079 84.9434 59.7079C85.6738 59.7079 86.3465 60.0924 86.702 60.7208L99.7429 83.5017C100.089 84.1114 100.089 84.8523 99.7237 85.4619C99.3585 86.0715 98.6954 86.4373 97.9842 86.4373Z"
		fill="#142251" />
	<path
		d="M52.2019 87H43.9949C43.2838 87 42.6207 86.6342 42.2555 86.034C41.8903 85.4338 41.8807 84.6928 42.2267 84.0832L68.8081 37.1239L66.5786 32.7909L59.717 44.5706C59.1692 45.5178 57.9391 45.8461 56.9685 45.3115C55.9979 44.7769 55.6615 43.5764 56.2093 42.6292L64.9352 27.6419C65.3004 27.0136 65.9731 26.6572 66.7419 26.6478C67.4819 26.6666 68.1546 27.0792 68.491 27.7357L72.8924 36.2891C73.1903 36.8706 73.1807 37.5553 72.8539 38.1274L47.4065 83.0703H51.0199L55.7769 74.8733C56.3246 73.926 57.5643 73.5884 58.5253 74.1324C59.4959 74.667 59.8323 75.8674 59.2845 76.8147L53.9413 86.0153C53.605 86.6249 52.9323 87 52.2019 87Z"
		fill="#142251" />
	<path
		d="M34.1638 86.4373H24.0444C23.3237 86.4373 22.6606 86.0621 22.305 85.4619C21.9398 84.8617 21.9398 84.1114 22.2858 83.5017L33.1355 64.7161C33.6833 63.7689 34.9134 63.4312 35.884 63.9658C36.8546 64.5004 37.2006 65.7009 36.6528 66.6481L27.504 82.4888H33.001L52.3076 49.3444C52.8554 48.3971 54.0855 48.0689 55.0561 48.6034C56.0267 49.138 56.3631 50.3385 55.8153 51.2858L35.9321 85.4338C35.5573 86.0621 34.8846 86.4373 34.1638 86.4373Z"
		fill="#142251" />
	<path
		d="M38.892 60.7114C38.5556 60.7114 38.2193 60.627 37.9021 60.4582C36.9315 59.9236 36.5856 58.7231 37.1333 57.7759L58.9482 19.9983L56.9108 16.2468L45.5517 35.1074C44.9847 36.0453 43.7451 36.3548 42.784 35.8108C41.823 35.2575 41.5059 34.0476 42.0633 33.1191L55.2579 11.2198C55.6327 10.6008 56.3246 10.235 57.0454 10.2444C57.7758 10.2632 58.4388 10.6571 58.7848 11.2854L63.0324 19.0979C63.3592 19.6888 63.3496 20.4016 63.0036 20.9924L40.6506 59.7079C40.2854 60.3456 39.6031 60.7114 38.892 60.7114Z"
		fill="#142251" />
	<path
		d="M13.483 86.4373H2.01816C1.29741 86.4373 0.624704 86.0621 0.269132 85.4525C-0.0960506 84.8429 -0.0864458 84.0926 0.278737 83.483L14.3767 59.8298C14.9341 58.8919 16.1738 58.5731 17.1348 59.117C18.0958 59.661 18.4225 60.8709 17.8652 61.8087L5.52583 82.4982H12.3298L37.1525 41.3818C37.7195 40.4439 38.9592 40.1344 39.9202 40.6878C40.8813 41.2411 41.1984 42.451 40.6314 43.3889L15.2224 85.4807C14.8572 86.0715 14.2037 86.4373 13.483 86.4373Z"
		fill="#142251" />
	<path
		d="M25.5532 46.9622C25.2072 46.9622 24.8613 46.8778 24.5441 46.6902C23.5831 46.1462 23.2564 44.9363 23.8138 43.9985L38.1039 20.0264C38.6613 19.0885 39.901 18.7697 40.862 19.3136C41.823 19.8576 42.1498 21.0674 41.5924 22.0053L27.3022 45.9774C26.9178 46.6151 26.2451 46.9622 25.5532 46.9622Z"
		fill="#142251" />
	<path
		d="M44.1871 15.7028C43.8412 15.7028 43.4952 15.6184 43.1781 15.4308C42.217 14.8869 41.8903 13.677 42.4477 12.7391L49.463 0.978181C50.0204 0.0403067 51.2601 -0.278565 52.2211 0.265402C53.1821 0.809369 53.5089 2.01922 52.9515 2.9571L45.9361 14.718C45.5614 15.3558 44.879 15.7028 44.1871 15.7028Z"
		fill="#142251" />
</svg>
