<svg
	viewBox="0 0 25 25"
	fill="none"
	id="note-cross"
	xmlns="http://www.w3.org/2000/svg">
	<path
		d="M5.34203 6.28777C5.73255 5.89724 6.36572 5.89724 6.75624 6.28777L12.0491 11.5807L17.342 6.28777C17.7326 5.89724 18.3657 5.89724 18.7562 6.28777C19.1468 6.67829 19.1468 7.31146 18.7562 7.70198L13.4633 12.9949L18.7562 18.2878C19.1468 18.6783 19.1468 19.3115 18.7562 19.702C18.3657 20.0925 17.7326 20.0925 17.342 19.702L12.0491 14.4091L6.75624 19.702C6.36572 20.0925 5.73255 20.0925 5.34203 19.702C4.9515 19.3115 4.9515 18.6783 5.34203 18.2878L10.6349 12.9949L5.34203 7.70198C4.9515 7.31146 4.9515 6.67829 5.34203 6.28777Z"
		fill="#142251" />
</svg>
