<svg
	viewBox="0 0 29 30"
	fill="none"
	xmlns="http://www.w3.org/2000/svg"
	id="note-boil">
	<path
		d="M6.86446 19.8032C6.40127 19.5024 6.26963 18.8831 6.57043 18.4199L14.1954 6.67849C14.4962 6.2153 15.1155 6.08366 15.5787 6.38446C16.0419 6.68525 16.1735 7.30458 15.8727 7.76776L8.24777 19.5092C7.94697 19.9723 7.32764 20.104 6.86446 19.8032ZM12.1471 20.849C11.6839 20.5482 11.5523 19.9289 11.8531 19.4657L17.2994 11.079C17.6002 10.6158 18.2196 10.4842 18.6828 10.785C19.1459 11.0858 19.2776 11.7051 18.9768 12.1683L13.5304 20.555C13.2296 21.0182 12.6103 21.1498 12.1471 20.849ZM17.4297 21.8949C16.9665 21.5941 16.8349 20.9748 17.1357 20.5116L20.4035 15.4796C20.7043 15.0164 21.3236 14.8847 21.7868 15.1855C22.25 15.4863 22.3817 16.1057 22.0809 16.5688L18.813 21.6009C18.5122 22.064 17.8929 22.1957 17.4297 21.8949Z"
		fill="#142251"
		fill-opacity="0.44" />
</svg>
