<svg
	width="348"
	height="277"
	viewBox="0 0 348 277"
	fill="none"
	xmlns="http://www.w3.org/2000/svg">
	<path
		d="M147.468 130.116C152.074 153.148 164.354 204.614 170.588 230.463C172.67 239.105 167.581 247.847 159.037 250.313C149.976 252.928 140.558 247.483 138.301 238.327L113.383 137.266C111.235 127.471 117.783 117.889 127.693 116.334C136.916 114.885 145.638 120.961 147.468 130.116Z"
		fill="#F2F3F8" />
	<path
		d="M170.617 230.361L191.86 317.159L159.597 325.971L137.975 237.21C135.918 227.83 142.192 218.654 151.678 217.162C160.512 215.777 168.864 221.594 170.617 230.361Z"
		fill="#F2F3F8" />
	<path
		d="M104.542 101.895L87.7497 102.135L71.4042 101.895L39.0684 116.685L43.0638 245.903H132.882L133.338 116.345L104.542 101.895Z"
		fill="#F2F3F8" />
	<path
		d="M91.3301 138.038C91.3301 139.091 90.477 139.946 89.4239 139.946C88.3686 139.946 87.5155 139.091 87.5155 138.038C87.5155 136.985 88.3686 136.132 89.4239 136.132C90.477 136.132 91.3301 136.985 91.3301 138.038Z"
		fill="#F2F3F8" />
	<path
		d="M91.3301 160.631C91.3301 161.686 90.477 162.539 89.4239 162.539C88.3686 162.539 87.5155 161.686 87.5155 160.631C87.5155 159.578 88.3686 158.725 89.4239 158.725C90.477 158.725 91.3301 159.578 91.3301 160.631Z"
		fill="#F2F3F8" />
	<path
		d="M91.3301 183.225C91.3301 184.28 90.477 185.133 89.4239 185.133C88.3686 185.133 87.5155 184.28 87.5155 183.225C87.5155 182.172 88.3686 181.319 89.4239 181.319C90.477 181.319 91.3301 182.172 91.3301 183.225Z"
		fill="#F2F3F8" />
	<path
		d="M91.3301 205.816C91.3301 206.872 90.477 207.725 89.4239 207.725C88.3686 207.725 87.5155 206.872 87.5155 205.816C87.5155 204.763 88.3686 203.91 89.4239 203.91C90.477 203.91 91.3301 204.763 91.3301 205.816Z"
		fill="#F2F3F8" />
	<path
		d="M91.3301 228.411C91.3301 229.466 90.477 230.319 89.4239 230.319C88.3686 230.319 87.5155 229.466 87.5155 228.411C87.5155 227.357 88.3686 226.504 89.4239 226.504C90.477 226.504 91.3301 227.357 91.3301 228.411Z"
		fill="#F2F3F8" />
	<path
		d="M26.3924 130.116C21.7864 153.148 9.50647 204.614 3.27504 230.463C1.19009 239.105 6.28119 247.847 14.8231 250.313C23.8841 252.928 33.3025 247.483 35.5619 238.327L60.477 137.266C62.6258 127.471 56.0774 117.889 46.1696 116.334C36.9469 114.885 28.2242 120.961 26.3924 130.116Z"
		fill="#F2F3F8" />
	<path
		d="M3.24304 230.361L-18 317.159L14.2635 325.971L35.8852 237.21C37.9425 227.83 31.6706 218.654 22.182 217.162C13.3486 215.777 4.9961 221.594 3.24304 230.361Z"
		fill="#F2F3F8" />
	<path
		d="M136.773 295.027H42.151L43.0637 245.903H132.546L136.773 295.027Z"
		fill="#F2F3F8" />
	<path
		d="M41.9323 294.439L39.0495 407.897C38.7049 418.147 46.9234 426.644 57.18 426.644C66.4644 426.644 74.2511 419.632 75.2212 410.396L86.6267 297.531C88.0159 284.298 77.6402 272.775 64.3348 272.775C52.2485 272.775 42.3365 282.36 41.9323 294.439Z"
		fill="#F2F3F8" />
	<path
		d="M136.612 294.439L141.533 407.897C141.878 418.147 133.659 426.644 123.405 426.644C114.118 426.644 106.332 419.632 105.362 410.396L91.9179 297.531C90.5286 284.298 100.904 272.775 114.21 272.775C126.296 272.775 136.208 282.36 136.612 294.439Z"
		fill="#F2F3F8" />
	<path
		d="M111.59 97.9104H103.178L106.171 105.01L111.59 97.9104Z"
		fill="#F2F3F8" />
	<path
		d="M90.6491 122.309C80.9329 122.309 73.0547 114.431 73.0547 104.715V67.271H108.243V104.715C108.243 114.431 100.365 122.309 90.6491 122.309Z"
		fill="#F2F3F8" />
	<path
		d="M94.306 122.309L83.7493 107.632C82.3154 105.2 80.3581 103.102 78.0094 101.475L73.6203 98.4367C72.6906 97.7942 71.4609 97.7347 70.4716 98.2857L66.0443 100.754C65.0231 101.324 64.4551 102.432 64.6061 103.564L66.4273 117.265C66.6039 118.616 68.3208 119.163 69.293 118.18L78.9816 108.376C79.5199 107.83 80.4411 107.902 80.8836 108.525L94.306 124.747V122.309Z"
		fill="#F2F3F8" />
	<path
		d="M94.3066 122.317L110.942 98.4377C111.405 97.7781 111.427 97.7356 112.237 98.2866L115.854 100.752C116.69 101.323 117.154 102.431 117.03 103.565L117.581 117.264C117.435 118.617 116.033 119.164 115.237 118.179L108.161 108.426C107.72 107.879 106.967 107.954 106.606 108.575L94.3066 124.755V122.317Z"
		fill="#F2F3F8" />
	<path
		d="M120.515 20.5144C119.107 15.2936 115.8 7.92604 103.991 2.43072C84.4816 -6.64943 74.2079 12.6342 74.2079 12.6342C68.9509 12.0619 64.5832 13.9107 62.0791 18.9677C59.7325 23.7057 62.0302 32.6156 62.7407 35.7175L67.017 55.3968L70.772 36.6791C74.4611 24.3673 80.0713 19.3528 80.0713 19.3528L97.8997 17.904L116.805 53.6055L120.483 32.4795C120.951 29.7988 121.145 27.0692 120.996 24.3524C120.911 22.7802 120.758 21.4144 120.515 20.5144Z"
		fill="#F2F3F8" />
	<path
		d="M113.517 49.283C113.517 49.283 115.895 45.5016 120.802 47.3628C125.705 49.2228 123.489 61.1361 116.129 62.6524C116.129 62.6524 113.491 63.2287 111.424 61.4238C111.424 61.4238 113.233 52.6226 113.517 49.283Z"
		fill="#F2F3F8" />
	<path
		d="M67.6597 49.1493C67.6597 49.1493 64.7551 45.4401 60.0949 47.3601C55.2475 49.3618 57.4115 61.1343 64.7688 62.6528C64.7688 62.6528 67.4065 63.2284 69.4747 61.4237C69.4747 61.4237 67.9434 52.4888 67.6597 49.1493Z"
		fill="#F2F3F8" />
	<path
		d="M61.0723 51.5649C61.0723 51.5649 65.1805 50.1913 68.0977 56.2457L61.0723 51.5649Z"
		fill="#F2F3F8" />
	<path
		d="M66.1033 53.2834C66.1033 53.2834 61.6301 55.6744 64.5863 59.2681L66.1033 53.2834Z"
		fill="#F2F3F8" />
	<path
		d="M118.087 37.979C118.089 45.1593 117.383 60.1858 112.968 69.1042C108.824 77.4759 101.967 81.9841 92.978 82.2521C83.9915 82.5202 77.2942 79.0545 71.9286 68.1873C66.561 57.3222 66.8184 38.113 66.8184 38.113C66.8184 38.113 66.8184 12.4575 92.1739 12.4575C118.88 12.4575 118.087 37.979 118.087 37.979Z"
		fill="#F2F3F8" />
	<path
		d="M100.983 44.9961V56.4505C100.983 56.7058 100.934 56.9505 100.844 57.176C100.493 58.0547 99.4806 58.4759 98.5658 58.2312L96.5957 57.7079"
		fill="#F2F3F8" />
	<path
		d="M89.9512 45.922C89.9512 47.2432 88.8811 48.3154 87.5578 48.3154C86.2366 48.3154 85.1644 47.2432 85.1644 45.922C85.1644 44.6008 86.2366 43.5286 87.5578 43.5286C88.8811 43.5286 89.9512 44.6008 89.9512 45.922Z"
		fill="#F2F3F8" />
	<path
		d="M92.3656 40.1626L92.4528 35.614L84.0173 35.7651C82.9514 35.7842 81.926 36.1693 81.109 36.8522L76.2285 40.9476L83.3386 39.8881L92.3656 40.1626Z"
		fill="#F2F3F8" />
	<path
		d="M105.738 45.9232C105.738 47.2444 106.808 48.3167 108.132 48.3167C109.453 48.3167 110.525 47.2444 110.525 45.9232C110.525 44.602 109.453 43.5298 108.132 43.5298C106.808 43.5298 105.738 44.602 105.738 45.9232Z"
		fill="#F2F3F8" />
	<path
		d="M104.228 40.1597L104.207 35.6133L110.864 35.6792C111.704 35.6877 112.511 36.0601 113.147 36.7366L116.957 40.7788L111.355 39.7917L104.228 40.1597Z"
		fill="#F2F3F8" />
	<path
		d="M97.1366 62.5262C96.1133 63.0814 95.241 63.3942 94.2623 63.6963C93.305 63.9814 92.3242 64.175 91.337 64.2792C89.3649 64.5047 87.3395 64.2707 85.5098 63.6239C85.1311 63.492 84.9333 63.0772 85.0673 62.6985C85.1843 62.3645 85.5205 62.1709 85.8588 62.2219L85.8843 62.2262C87.5778 62.4794 89.2776 62.3496 90.869 61.8539C91.6668 61.6135 92.4391 61.3007 93.1731 60.9199C93.8858 60.5519 94.6559 60.0689 95.1644 59.6434C95.9048 59.0158 97.0132 59.1073 97.6387 59.8477C98.2663 60.588 98.1748 61.6943 97.4344 62.3219C97.3451 62.3964 97.2345 62.4708 97.1366 62.5262Z"
		fill="#F2F3F8" />
	<path
		d="M102.655 59.7942C103.061 60.192 103.716 60.6622 104.316 61.0175C104.94 61.3856 105.599 61.6919 106.284 61.9281C107.654 62.4131 109.139 62.5408 110.618 62.277L110.644 62.2727C111.014 62.2068 111.367 62.4536 111.431 62.8237C111.488 63.1471 111.307 63.4577 111.014 63.5726C109.395 64.2194 107.552 64.4385 105.78 64.1853C104.891 64.0683 104.016 63.8577 103.168 63.562C102.302 63.2492 101.538 62.9301 100.644 62.3727C99.8699 61.8983 99.6295 60.8835 100.106 60.1091C100.583 59.3368 101.595 59.0943 102.37 59.5729C102.47 59.6346 102.572 59.7155 102.655 59.7942Z"
		fill="#F2F3F8" />
	<path
		d="M95.67 69.5488C95.67 69.5488 98.0954 70.4211 101.567 69.5488H95.67Z"
		fill="#F2F3F8" />
	<path
		d="M238.468 130.116C243.074 153.148 255.354 204.614 261.588 230.463C263.67 239.105 258.581 247.847 250.037 250.313C240.976 252.928 231.558 247.483 229.301 238.327L204.383 137.266C202.235 127.471 208.783 117.889 218.693 116.334C227.916 114.885 236.638 120.961 238.468 130.116Z"
		fill="#142251" />
	<path
		d="M261.617 230.361L282.86 317.159L250.597 325.971L228.975 237.21C226.918 227.83 233.192 218.654 242.678 217.162C251.512 215.777 259.864 221.594 261.617 230.361Z"
		fill="#142251" />
	<path
		d="M195.542 101.895L178.75 102.135L162.404 101.895L130.068 116.685L134.064 245.903H223.882L224.338 116.345L195.542 101.895Z"
		fill="#142251" />
	<path
		d="M182.33 138.038C182.33 139.091 181.477 139.946 180.424 139.946C179.369 139.946 178.516 139.091 178.516 138.038C178.516 136.985 179.369 136.132 180.424 136.132C181.477 136.132 182.33 136.985 182.33 138.038Z"
		fill="#142251" />
	<path
		d="M182.33 160.631C182.33 161.686 181.477 162.539 180.424 162.539C179.369 162.539 178.516 161.686 178.516 160.631C178.516 159.578 179.369 158.725 180.424 158.725C181.477 158.725 182.33 159.578 182.33 160.631Z"
		fill="#142251" />
	<path
		d="M182.33 183.225C182.33 184.28 181.477 185.133 180.424 185.133C179.369 185.133 178.516 184.28 178.516 183.225C178.516 182.172 179.369 181.319 180.424 181.319C181.477 181.319 182.33 182.172 182.33 183.225Z"
		fill="#142251" />
	<path
		d="M182.33 205.816C182.33 206.872 181.477 207.725 180.424 207.725C179.369 207.725 178.516 206.872 178.516 205.816C178.516 204.763 179.369 203.91 180.424 203.91C181.477 203.91 182.33 204.763 182.33 205.816Z"
		fill="#142251" />
	<path
		d="M182.33 228.411C182.33 229.466 181.477 230.319 180.424 230.319C179.369 230.319 178.516 229.466 178.516 228.411C178.516 227.357 179.369 226.504 180.424 226.504C181.477 226.504 182.33 227.357 182.33 228.411Z"
		fill="#142251" />
	<path
		d="M117.392 130.116C112.786 153.148 100.506 204.614 94.275 230.463C92.1901 239.105 97.2812 247.847 105.823 250.313C114.884 252.928 124.303 247.483 126.562 238.327L151.477 137.266C153.626 127.471 147.077 117.889 137.17 116.334C127.947 114.885 119.224 120.961 117.392 130.116Z"
		fill="#142251" />
	<path
		d="M94.243 230.361L73 317.159L105.263 325.971L126.885 237.21C128.942 227.83 122.671 218.654 113.182 217.162C104.349 215.777 95.9961 221.594 94.243 230.361Z"
		fill="#142251" />
	<path
		d="M227.773 295.027H133.151L134.064 245.903H223.546L227.773 295.027Z"
		fill="#142251" />
	<path
		d="M132.932 294.439L130.05 407.897C129.705 418.147 137.923 426.644 148.18 426.644C157.464 426.644 165.251 419.632 166.221 410.396L177.627 297.531C179.016 284.298 168.64 272.775 155.335 272.775C143.248 272.775 133.336 282.36 132.932 294.439Z"
		fill="#142251" />
	<path
		d="M227.612 294.439L232.533 407.897C232.878 418.147 224.659 426.644 214.405 426.644C205.118 426.644 197.332 419.632 196.362 410.396L182.918 297.531C181.529 284.298 191.904 272.775 205.21 272.775C217.296 272.775 227.208 282.36 227.612 294.439Z"
		fill="#142251" />
	<path
		d="M202.59 97.9104H194.178L197.171 105.01L202.59 97.9104Z"
		fill="#142251" />
	<path
		d="M181.649 122.309C171.933 122.309 164.055 114.431 164.055 104.715V67.271H199.243V104.715C199.243 114.431 191.365 122.309 181.649 122.309Z"
		fill="#142251" />
	<path
		d="M185.306 122.309L174.749 107.632C173.315 105.2 171.358 103.102 169.009 101.475L164.62 98.4367C163.691 97.7942 162.461 97.7347 161.472 98.2857L157.044 100.754C156.023 101.324 155.455 102.432 155.606 103.564L157.427 117.265C157.604 118.616 159.321 119.163 160.293 118.18L169.982 108.376C170.52 107.83 171.441 107.902 171.884 108.525L185.306 124.747V122.309Z"
		fill="#142251" />
	<path
		d="M185.307 122.317L201.942 98.4377C202.405 97.7781 202.427 97.7356 203.237 98.2866L206.854 100.752C207.69 101.323 208.154 102.431 208.03 103.565L208.581 117.264C208.435 118.617 207.033 119.164 206.237 118.179L199.161 108.426C198.72 107.879 197.967 107.954 197.606 108.575L185.307 124.755V122.317Z"
		fill="#142251" />
	<path
		d="M211.515 20.5144C210.107 15.2936 206.8 7.92604 194.991 2.43072C175.482 -6.64943 165.208 12.6342 165.208 12.6342C159.951 12.0619 155.583 13.9107 153.079 18.9677C150.732 23.7057 153.03 32.6156 153.741 35.7175L158.017 55.3968L161.772 36.6791C165.461 24.3673 171.071 19.3528 171.071 19.3528L188.9 17.904L207.805 53.6055L211.483 32.4795C211.951 29.7988 212.145 27.0692 211.996 24.3524C211.911 22.7802 211.758 21.4144 211.515 20.5144Z"
		fill="#142251" />
	<path
		d="M204.517 49.283C204.517 49.283 206.895 45.5016 211.802 47.3628C216.705 49.2228 214.489 61.1361 207.129 62.6524C207.129 62.6524 204.491 63.2287 202.424 61.4238C202.424 61.4238 204.233 52.6226 204.517 49.283Z"
		fill="#142251" />
	<path
		d="M158.66 49.1493C158.66 49.1493 155.755 45.4401 151.095 47.3601C146.248 49.3618 148.411 61.1343 155.769 62.6528C155.769 62.6528 158.407 63.2284 160.475 61.4237C160.475 61.4237 158.943 52.4888 158.66 49.1493Z"
		fill="#142251" />
	<path
		d="M152.072 51.5649C152.072 51.5649 156.18 50.1913 159.098 56.2457L152.072 51.5649Z"
		fill="#142251" />
	<path
		d="M157.103 53.2834C157.103 53.2834 152.63 55.6744 155.586 59.2681L157.103 53.2834Z"
		fill="#142251" />
	<path
		d="M209.087 37.979C209.089 45.1593 208.383 60.1858 203.968 69.1042C199.824 77.4759 192.967 81.9841 183.978 82.2521C174.992 82.5202 168.294 79.0545 162.929 68.1873C157.561 57.3222 157.818 38.113 157.818 38.113C157.818 38.113 157.818 12.4575 183.174 12.4575C209.88 12.4575 209.087 37.979 209.087 37.979Z"
		fill="#142251" />
	<path
		d="M191.983 44.9961V56.4505C191.983 56.7058 191.934 56.9505 191.844 57.176C191.493 58.0547 190.481 58.4759 189.566 58.2312L187.596 57.7079"
		fill="#142251" />
	<path
		d="M180.951 45.922C180.951 47.2432 179.881 48.3154 178.558 48.3154C177.237 48.3154 176.164 47.2432 176.164 45.922C176.164 44.6008 177.237 43.5286 178.558 43.5286C179.881 43.5286 180.951 44.6008 180.951 45.922Z"
		fill="#142251" />
	<path
		d="M183.366 40.1626L183.453 35.614L175.017 35.7651C173.951 35.7842 172.926 36.1693 172.109 36.8522L167.229 40.9476L174.339 39.8881L183.366 40.1626Z"
		fill="#142251" />
	<path
		d="M196.738 45.9232C196.738 47.2444 197.808 48.3167 199.132 48.3167C200.453 48.3167 201.525 47.2444 201.525 45.9232C201.525 44.602 200.453 43.5298 199.132 43.5298C197.808 43.5298 196.738 44.602 196.738 45.9232Z"
		fill="#142251" />
	<path
		d="M195.228 40.1597L195.207 35.6133L201.864 35.6792C202.704 35.6877 203.511 36.0601 204.147 36.7366L207.957 40.7788L202.355 39.7917L195.228 40.1597Z"
		fill="#142251" />
	<path
		d="M188.137 62.5262C187.113 63.0814 186.241 63.3942 185.262 63.6963C184.305 63.9814 183.324 64.175 182.337 64.2792C180.365 64.5047 178.339 64.2707 176.51 63.6239C176.131 63.492 175.933 63.0772 176.067 62.6985C176.184 62.3645 176.52 62.1709 176.859 62.2219L176.884 62.2262C178.578 62.4794 180.278 62.3496 181.869 61.8539C182.667 61.6135 183.439 61.3007 184.173 60.9199C184.886 60.5519 185.656 60.0689 186.164 59.6434C186.905 59.0158 188.013 59.1073 188.639 59.8477C189.266 60.588 189.175 61.6943 188.434 62.3219C188.345 62.3964 188.234 62.4708 188.137 62.5262Z"
		fill="#142251" />
	<path
		d="M193.655 59.7942C194.061 60.192 194.716 60.6622 195.316 61.0175C195.94 61.3856 196.599 61.6919 197.284 61.9281C198.654 62.4131 200.139 62.5408 201.618 62.277L201.644 62.2727C202.014 62.2068 202.367 62.4536 202.431 62.8237C202.488 63.1471 202.307 63.4577 202.014 63.5726C200.395 64.2194 198.552 64.4385 196.78 64.1853C195.891 64.0683 195.016 63.8577 194.168 63.562C193.302 63.2492 192.538 62.9301 191.644 62.3727C190.87 61.8983 190.63 60.8835 191.106 60.1091C191.583 59.3368 192.595 59.0943 193.37 59.5729C193.47 59.6346 193.572 59.7155 193.655 59.7942Z"
		fill="#142251" />
	<path
		d="M186.67 69.5488C186.67 69.5488 189.095 70.4211 192.567 69.5488H186.67Z"
		fill="#142251" />
	<path
		d="M321.468 130.116C326.074 153.148 338.354 204.614 344.588 230.463C346.67 239.105 341.581 247.847 333.037 250.313C323.976 252.928 314.558 247.483 312.301 238.327L287.383 137.266C285.235 127.471 291.783 117.889 301.693 116.334C310.916 114.885 319.638 120.961 321.468 130.116Z"
		fill="#E4E7F1" />
	<path
		d="M344.617 230.361L365.86 317.159L333.597 325.971L311.975 237.21C309.918 227.83 316.192 218.654 325.678 217.162C334.512 215.777 342.864 221.594 344.617 230.361Z"
		fill="#E4E7F1" />
	<path
		d="M278.542 101.895L261.75 102.135L245.404 101.895L213.068 116.685L217.064 245.903H306.882L307.338 116.345L278.542 101.895Z"
		fill="#E4E7F1" />
	<path
		d="M265.33 138.038C265.33 139.091 264.477 139.946 263.424 139.946C262.369 139.946 261.516 139.091 261.516 138.038C261.516 136.985 262.369 136.132 263.424 136.132C264.477 136.132 265.33 136.985 265.33 138.038Z"
		fill="#E4E7F1" />
	<path
		d="M265.33 160.631C265.33 161.686 264.477 162.539 263.424 162.539C262.369 162.539 261.516 161.686 261.516 160.631C261.516 159.578 262.369 158.725 263.424 158.725C264.477 158.725 265.33 159.578 265.33 160.631Z"
		fill="#E4E7F1" />
	<path
		d="M265.33 183.225C265.33 184.28 264.477 185.133 263.424 185.133C262.369 185.133 261.516 184.28 261.516 183.225C261.516 182.172 262.369 181.319 263.424 181.319C264.477 181.319 265.33 182.172 265.33 183.225Z"
		fill="#E4E7F1" />
	<path
		d="M265.33 205.816C265.33 206.872 264.477 207.725 263.424 207.725C262.369 207.725 261.516 206.872 261.516 205.816C261.516 204.763 262.369 203.91 263.424 203.91C264.477 203.91 265.33 204.763 265.33 205.816Z"
		fill="#E4E7F1" />
	<path
		d="M265.33 228.411C265.33 229.466 264.477 230.319 263.424 230.319C262.369 230.319 261.516 229.466 261.516 228.411C261.516 227.357 262.369 226.504 263.424 226.504C264.477 226.504 265.33 227.357 265.33 228.411Z"
		fill="#E4E7F1" />
	<path
		d="M200.392 130.116C195.786 153.148 183.506 204.614 177.275 230.463C175.19 239.105 180.281 247.847 188.823 250.313C197.884 252.928 207.303 247.483 209.562 238.327L234.477 137.266C236.626 127.471 230.077 117.889 220.17 116.334C210.947 114.885 202.224 120.961 200.392 130.116Z"
		fill="#E4E7F1" />
	<path
		d="M177.243 230.361L156 317.159L188.263 325.971L209.885 237.21C211.942 227.83 205.671 218.654 196.182 217.162C187.349 215.777 178.996 221.594 177.243 230.361Z"
		fill="#E4E7F1" />
	<path
		d="M310.773 295.027H216.151L217.064 245.903H306.546L310.773 295.027Z"
		fill="#E4E7F1" />
	<path
		d="M215.932 294.439L213.05 407.897C212.705 418.147 220.923 426.644 231.18 426.644C240.464 426.644 248.251 419.632 249.221 410.396L260.627 297.531C262.016 284.298 251.64 272.775 238.335 272.775C226.248 272.775 216.336 282.36 215.932 294.439Z"
		fill="#E4E7F1" />
	<path
		d="M310.612 294.439L315.533 407.897C315.878 418.147 307.659 426.644 297.405 426.644C288.118 426.644 280.332 419.632 279.362 410.396L265.918 297.531C264.529 284.298 274.904 272.775 288.21 272.775C300.296 272.775 310.208 282.36 310.612 294.439Z"
		fill="#E4E7F1" />
	<path
		d="M285.59 97.9104H277.178L280.171 105.01L285.59 97.9104Z"
		fill="#E4E7F1" />
	<path
		d="M264.649 122.309C254.933 122.309 247.055 114.431 247.055 104.715V67.271H282.243V104.715C282.243 114.431 274.365 122.309 264.649 122.309Z"
		fill="#E4E7F1" />
	<path
		d="M268.306 122.309L257.749 107.632C256.315 105.2 254.358 103.102 252.009 101.475L247.62 98.4367C246.691 97.7942 245.461 97.7347 244.472 98.2857L240.044 100.754C239.023 101.324 238.455 102.432 238.606 103.564L240.427 117.265C240.604 118.616 242.321 119.163 243.293 118.18L252.982 108.376C253.52 107.83 254.441 107.902 254.884 108.525L268.306 124.747V122.309Z"
		fill="#E4E7F1" />
	<path
		d="M268.307 122.317L284.942 98.4377C285.405 97.7781 285.427 97.7356 286.237 98.2866L289.854 100.752C290.69 101.323 291.154 102.431 291.03 103.565L291.581 117.264C291.435 118.617 290.033 119.164 289.237 118.179L282.161 108.426C281.72 107.879 280.967 107.954 280.606 108.575L268.307 124.755V122.317Z"
		fill="#E4E7F1" />
	<path
		d="M294.515 20.5144C293.107 15.2936 289.8 7.92604 277.991 2.43072C258.482 -6.64943 248.208 12.6342 248.208 12.6342C242.951 12.0619 238.583 13.9107 236.079 18.9677C233.732 23.7057 236.03 32.6156 236.741 35.7175L241.017 55.3968L244.772 36.6791C248.461 24.3673 254.071 19.3528 254.071 19.3528L271.9 17.904L290.805 53.6055L294.483 32.4795C294.951 29.7988 295.145 27.0692 294.996 24.3524C294.911 22.7802 294.758 21.4144 294.515 20.5144Z"
		fill="#E4E7F1" />
	<path
		d="M287.517 49.283C287.517 49.283 289.895 45.5016 294.802 47.3628C299.705 49.2228 297.489 61.1361 290.129 62.6524C290.129 62.6524 287.491 63.2287 285.424 61.4238C285.424 61.4238 287.233 52.6226 287.517 49.283Z"
		fill="#E4E7F1" />
	<path
		d="M241.66 49.1493C241.66 49.1493 238.755 45.4401 234.095 47.3601C229.248 49.3618 231.411 61.1343 238.769 62.6528C238.769 62.6528 241.407 63.2284 243.475 61.4237C243.475 61.4237 241.943 52.4888 241.66 49.1493Z"
		fill="#E4E7F1" />
	<path
		d="M235.072 51.5649C235.072 51.5649 239.18 50.1913 242.098 56.2457L235.072 51.5649Z"
		fill="#E4E7F1" />
	<path
		d="M240.103 53.2834C240.103 53.2834 235.63 55.6744 238.586 59.2681L240.103 53.2834Z"
		fill="#E4E7F1" />
	<path
		d="M292.087 37.979C292.089 45.1593 291.383 60.1858 286.968 69.1042C282.824 77.4759 275.967 81.9841 266.978 82.2521C257.992 82.5202 251.294 79.0545 245.929 68.1873C240.561 57.3222 240.818 38.113 240.818 38.113C240.818 38.113 240.818 12.4575 266.174 12.4575C292.88 12.4575 292.087 37.979 292.087 37.979Z"
		fill="#E4E7F1" />
	<path
		d="M274.983 44.9961V56.4505C274.983 56.7058 274.934 56.9505 274.844 57.176C274.493 58.0547 273.481 58.4759 272.566 58.2312L270.596 57.7079"
		fill="#E4E7F1" />
	<path
		d="M263.951 45.922C263.951 47.2432 262.881 48.3154 261.558 48.3154C260.237 48.3154 259.164 47.2432 259.164 45.922C259.164 44.6008 260.237 43.5286 261.558 43.5286C262.881 43.5286 263.951 44.6008 263.951 45.922Z"
		fill="#E4E7F1" />
	<path
		d="M266.366 40.1626L266.453 35.614L258.017 35.7651C256.951 35.7842 255.926 36.1693 255.109 36.8522L250.229 40.9476L257.339 39.8881L266.366 40.1626Z"
		fill="#E4E7F1" />
	<path
		d="M279.738 45.9232C279.738 47.2444 280.808 48.3167 282.132 48.3167C283.453 48.3167 284.525 47.2444 284.525 45.9232C284.525 44.602 283.453 43.5298 282.132 43.5298C280.808 43.5298 279.738 44.602 279.738 45.9232Z"
		fill="#E4E7F1" />
	<path
		d="M278.228 40.1597L278.207 35.6133L284.864 35.6792C285.704 35.6877 286.511 36.0601 287.147 36.7366L290.957 40.7788L285.355 39.7917L278.228 40.1597Z"
		fill="#E4E7F1" />
	<path
		d="M271.137 62.5262C270.113 63.0814 269.241 63.3942 268.262 63.6963C267.305 63.9814 266.324 64.175 265.337 64.2792C263.365 64.5047 261.339 64.2707 259.51 63.6239C259.131 63.492 258.933 63.0772 259.067 62.6985C259.184 62.3645 259.52 62.1709 259.859 62.2219L259.884 62.2262C261.578 62.4794 263.278 62.3496 264.869 61.8539C265.667 61.6135 266.439 61.3007 267.173 60.9199C267.886 60.5519 268.656 60.0689 269.164 59.6434C269.905 59.0158 271.013 59.1073 271.639 59.8477C272.266 60.588 272.175 61.6943 271.434 62.3219C271.345 62.3964 271.234 62.4708 271.137 62.5262Z"
		fill="#E4E7F1" />
	<path
		d="M276.655 59.7942C277.061 60.192 277.716 60.6622 278.316 61.0175C278.94 61.3856 279.599 61.6919 280.284 61.9281C281.654 62.4131 283.139 62.5408 284.618 62.277L284.644 62.2727C285.014 62.2068 285.367 62.4536 285.431 62.8237C285.488 63.1471 285.307 63.4577 285.014 63.5726C283.395 64.2194 281.552 64.4385 279.78 64.1853C278.891 64.0683 278.016 63.8577 277.168 63.562C276.302 63.2492 275.538 62.9301 274.644 62.3727C273.87 61.8983 273.63 60.8835 274.106 60.1091C274.583 59.3368 275.595 59.0943 276.37 59.5729C276.47 59.6346 276.572 59.7155 276.655 59.7942Z"
		fill="#E4E7F1" />
	<path
		d="M269.67 69.5488C269.67 69.5488 272.095 70.4211 275.567 69.5488H269.67Z"
		fill="#E4E7F1" />
</svg>
