<svg
	id="people"
	fill="none"
	xmlns="http://www.w3.org/2000/svg"
	viewBox="0 0 384 587">
	<path
		fill="#f2f3f8"
		d="M197.7,336.8c4.2-0.9,6.9-5,6-9.2l-4-19c-0.9-4.2-5-6.9-9.2-6c-4.2,0.9-6.9,5-6,9.2l4,19
	C189.4,335,193.5,337.7,197.7,336.8z" />
	<path
		fill="#f2f3f8"
		d="M184.8,335.3c1.6-3.9,3.6-5.2,3.6-5.2c-0.8-3.6,1.6-7.2,5.2-7.8l2.6-0.4c3.4-0.6,6.6,1.6,7.4,4.9l0,0.2
	c0,0,4.7,8.6,5.8,20.4c1.4,15.3-5.1,23-9.8,23.1c-4.5,0.1-7-17.8-8.1-24.5l-2.8,6.7c-0.4,0.9-1.2,1.4-2.1,1.3
	c-1-0.1-1.8-0.9-1.9-1.8l-1-7.8C183.4,341.3,183.7,338.1,184.8,335.3z" />
	<path
		fill="#f2f3f8"
		d="M122.5,101.9l-16.8,0.2l-16.3-0.2l-32.3,14.8l4,129.2h89.8l0.5-129.6L122.5,101.9z" />
	<path
		fill="#f2f3f8"
		d="M44.4,130.1c-4.6,23-16.9,74.5-23.1,100.3c-2.1,8.6,3,17.4,11.5,19.9c9.1,2.6,18.5-2.8,20.7-12l24.9-101.1
	c2.1-9.8-4.4-19.4-14.3-20.9C54.9,114.9,46.2,121,44.4,130.1z" />
	<path
		fill="#f2f3f8"
		d="M12.2,336.8c-4.2-0.9-6.9-5-6-9.2l4-19c0.9-4.2,5-6.9,9.2-6c4.2,0.9,6.9,5,6,9.2l-4,19
	C20.5,335,16.4,337.7,12.2,336.8z" />
	<path
		fill="#f2f3f8"
		d="M25,335.3c-1.6-3.9-3.6-5.2-3.6-5.2c0.8-3.6-1.6-7.2-5.2-7.8l-2.6-0.4c-3.4-0.6-6.6,1.6-7.4,4.9l0,0.2
	c0,0-4.7,8.6-5.8,20.4c-1.4,15.3,5.1,23,9.8,23.1c4.5,0.1,7-17.8,8.1-24.5l2.8,6.7c0.4,0.9,1.2,1.4,2.1,1.3c1-0.1,1.8-0.9,1.9-1.8
	l1-7.8C26.5,341.3,26.2,338.1,25,335.3z" />
	<path
		fill="#f2f3f8"
		d="M21.2,230.4L0,317.2l32.3,8.8l21.6-88.8c2.1-9.4-4.2-18.6-13.7-20C31.3,215.8,23,221.6,21.2,230.4z" />
	<path fill="#f2f3f8" d="M154.8,295H60.2l0.9-50.5h89.5L154.8,295z" />
	<path
		fill="#f2f3f8"
		d="M59.9,294.4L57,407.9c-0.3,10.2,7.9,18.7,18.1,18.7c9.3,0,17.1-7,18-16.2l11.4-112.9c1.4-13.2-9-24.8-22.3-24.8
	C70.2,272.8,60.3,282.4,59.9,294.4z" />
	<path fill="#f2f3f8" d="M55.8,557.7l2.3-37.4l17.5,0.1l-2.8,37.3L55.8,557.7z" />
	<path
		fill="#f2f3f8"
		d="M74.2,557.5H54.3l-13.3,10.9c-3.2,2.3-5.2,6.2-5.2,10.4v2.3l44.8-0.3v-5.9c0-2.2-0.5-4.4-1.6-6.3L74.2,557.5z" />
	<path fill="#f2f3f8" d="M81.5,586.8L34.8,587l0-6.1l46.6-0.2L81.5,586.8z" />
	<path
		fill="#f2f3f8"
		d="M59.9,563c0,0-4.1-13.1-9.4-12.1C43.1,552.4,50.5,560.8,59.9,563z" />
	<path
		fill="#f2f3f8"
		d="M93.2,411L78.8,542.5H53.2l3.9-134c0.3-10.1,8.8-18,19-17.6C86.5,391.4,94.4,400.6,93.2,411z" />
	<path
		fill="#f2f3f8"
		d="M154.6,294.4l4.9,113.5c0.3,10.2-7.9,18.7-18.1,18.7c-9.3,0-17.1-7-18-16.2l-13.4-112.9
	c-1.4-13.2,9-24.8,22.3-24.8C144.3,272.8,154.2,282.4,154.6,294.4z" />
	<path
		fill="#f2f3f8"
		d="M159.6,557.7l-2.3-37.4l-17.5,0.1l2.2,37.4L159.6,557.7z" />
	<path
		fill="#f2f3f8"
		d="M160.9,557.7l21.9,11.9l12.3,2.4c5.7,1.1,9.9,5.8,10.4,11.5l0.3,2.7l-66.3,0.3l-0.1-28.7L160.9,557.7z" />
	<path
		fill="#f2f3f8"
		d="M170.1,563.4c0,0-4.1-13.1,0.7-15.2C177.7,545,176.5,556.2,170.1,563.4z" />
	<path fill="#f2f3f8" d="M206,586.6l-66.8,0.3l0-5.9l66.8-0.3L206,586.6z" />
	<path
		fill="#f2f3f8"
		d="M123.4,411l14.4,131.4h25.6l-3.9-134c-0.3-10.1-8.8-18-19-17.6C130.1,391.4,122.2,400.6,123.4,411z" />
	<path fill="#f2f3f8" d="M129.6,97.9h-8.4l3,7.1L129.6,97.9z" />
	<path
		fill="#f2f3f8"
		d="M108.6,122.3c-9.7,0-17.6-7.9-17.6-17.6V67.3h35.2v37.4C126.2,114.4,118.4,122.3,108.6,122.3z" />
	<path
		fill="#f2f3f8"
		d="M112.3,122.3l-10.6-14.7c-1.4-2.4-3.4-4.5-5.7-6.2l-4.4-3c-0.9-0.6-2.2-0.7-3.1-0.2l-4.4,2.5
	c-1,0.6-1.6,1.7-1.4,2.8l1.8,13.7c0.2,1.4,1.9,1.9,2.9,0.9l9.7-9.8c0.5-0.5,1.5-0.5,1.9,0.1l13.4,16.2V122.3z" />
	<path
		fill="#f2f3f8"
		d="M112.3,122.3l16.6-23.9c0.5-0.7,0.5-0.7,1.3-0.2l3.6,2.5c0.8,0.6,1.3,1.7,1.2,2.8l0.6,13.7
	c-0.1,1.4-1.5,1.9-2.3,0.9l-7.1-9.8c-0.4-0.5-1.2-0.5-1.6,0.1l-12.3,16.2V122.3z" />
	<path
		fill="#f2f3f8"
		d="M138.5,20.5c-1.4-5.2-4.7-12.6-16.5-18.1c-19.5-9.1-29.8,10.2-29.8,10.2c-5.3-0.6-9.6,1.3-12.1,6.3
	c-2.3,4.7,0,13.6,0.7,16.7L85,55.4l3.8-18.7c3.7-12.3,9.3-17.3,9.3-17.3l17.8-1.4l18.9,35.7l3.7-21.1c0.5-2.7,0.7-5.4,0.5-8.1
	C138.9,22.8,138.8,21.4,138.5,20.5z" />
	<path
		fill="#f2f3f8"
		d="M131.5,49.3c0,0,2.4-3.8,7.3-1.9c4.9,1.9,2.7,13.8-4.7,15.3c0,0-2.6,0.6-4.7-1.2
	C129.4,61.4,131.2,52.6,131.5,49.3z" />
	<path
		fill="#f2f3f8"
		d="M85.7,49.1c0,0-2.9-3.7-7.6-1.8c-4.8,2-2.7,13.8,4.7,15.3c0,0,2.6,0.6,4.7-1.2C87.5,61.4,85.9,52.5,85.7,49.1z" />
	<path
		fill="#f2f3f8"
		d="M136.1,38c0,7.2-0.7,22.2-5.1,31.1c-4.1,8.4-11,12.9-20,13.1c-9,0.3-15.7-3.2-21-14.1
	c-5.4-10.9-5.1-30.1-5.1-30.1s0-25.7,25.4-25.7C136.9,12.5,136.1,38,136.1,38z" />
	<path
		fill="#142251"
		d="M288.7,336.8c4.2-0.9,6.9-5,6-9.2l-4-19c-0.9-4.2-5-6.9-9.2-6c-4.2,0.9-6.9,5-6,9.2l4,19
	C280.4,335,284.5,337.7,288.7,336.8z" />
	<path
		fill="#142251"
		d="M275.8,335.3c1.6-3.9,3.6-5.2,3.6-5.2c-0.8-3.6,1.6-7.2,5.2-7.8l2.6-0.4c3.4-0.6,6.6,1.6,7.4,4.9l0,0.2
	c0,0,4.7,8.6,5.8,20.4c1.4,15.3-5.1,23-9.8,23.1c-4.5,0.1-7-17.8-8.1-24.5l-2.8,6.7c-0.4,0.9-1.2,1.4-2.1,1.3
	c-1-0.1-1.8-0.9-1.9-1.8l-1-7.8C274.4,341.3,274.7,338.1,275.8,335.3z" />
	<path
		fill="#142251"
		d="M279.6,230.4l21.2,86.8l-32.3,8.8L247,237.2c-2.1-9.4,4.2-18.6,13.7-20C269.5,215.8,277.9,221.6,279.6,230.4z" />
	<path
		fill="#142251"
		d="M213.5,101.9l-16.8,0.2l-16.3-0.2l-32.3,14.8l4,129.2h89.8l0.5-129.6L213.5,101.9z" />
	<path
		fill="#142251"
		d="M135.4,130.1c-4.6,23-16.9,74.5-23.1,100.3c-2.1,8.6,3,17.4,11.5,19.9c9.1,2.6,18.5-2.8,20.7-12l24.9-101.1
	c2.1-9.8-4.4-19.4-14.3-20.9C145.9,114.9,137.2,121,135.4,130.1z" />
	<path
		fill="#142251"
		d="M103.2,336.8c-4.2-0.9-6.9-5-6-9.2l4-19c0.9-4.2,5-6.9,9.2-6c4.2,0.9,6.9,5,6,9.2l-4,19
	C111.5,335,107.4,337.7,103.2,336.8z" />
	<path
		fill="#142251"
		d="M116,335.3c-1.6-3.9-3.6-5.2-3.6-5.2c0.8-3.6-1.6-7.2-5.2-7.8l-2.6-0.4c-3.4-0.6-6.6,1.6-7.4,4.9l0,0.2
	c0,0-4.7,8.6-5.8,20.4c-1.4,15.3,5.1,23,9.8,23.1c4.5,0.1,7-17.8,8.1-24.5l2.8,6.7c0.4,0.9,1.2,1.4,2.1,1.3c1-0.1,1.8-0.9,1.9-1.8
	l1-7.8C117.5,341.3,117.2,338.1,116,335.3z" />
	<path
		fill="#142251"
		d="M112.2,230.4L91,317.2l32.3,8.8l21.6-88.8c2.1-9.4-4.2-18.6-13.7-20C122.3,215.8,114,221.6,112.2,230.4z" />
	<path fill="#142251" d="M245.8,295h-94.6l0.9-50.3h89.5L245.8,295z" />
	<path
		fill="#142251"
		d="M150.9,294.4l-2.9,113.5c-0.3,10.2,7.9,18.7,18.1,18.7c9.3,0,17.1-7,18-16.2l11.4-112.9
	c1.4-13.2-9-24.8-22.3-24.8C161.2,272.8,151.3,282.4,150.9,294.4z" />
	<path
		fill="#142251"
		d="M146.8,557.7l2.3-37.4l17.5,0.1l-2.8,37.3L146.8,557.7z" />
	<path
		fill="#142251"
		d="M165.2,557.5h-19.9l-13.3,10.9c-3.2,2.3-5.2,6.2-5.2,10.4v2.3l44.8-0.3v-5.9c0-2.2-0.5-4.4-1.6-6.3L165.2,557.5
	z" />
	<path fill="#142251" d="M172.5,586.8l-46.6,0.2l0-6.1l46.6-0.2L172.5,586.8z" />
	<path
		fill="#142251"
		d="M150.9,563c0,0-4.1-13.1-9.3-12.1C134.1,552.4,141.5,560.8,150.9,563z" />
	<path
		fill="#142251"
		d="M184.2,411l-14.4,131.4h-25.6l3.9-134c0.3-10.1,8.8-18,19-17.6C177.5,391.4,185.4,400.6,184.2,411z" />
	<path
		fill="#142251"
		d="M245.6,294.4l4.9,113.5c0.3,10.2-7.9,18.7-18.1,18.7c-9.3,0-17.1-7-18-16.2l-13.4-112.9
	c-1.4-13.2,9-24.8,22.3-24.8C235.3,272.8,245.2,282.4,245.6,294.4z" />
	<path
		fill="#142251"
		d="M250.6,557.7l-2.3-37.4l-17.5,0.1l2.2,37.4L250.6,557.7z" />
	<path
		fill="#142251"
		d="M251.9,557.7l21.9,11.9l12.3,2.4c5.7,1.1,9.9,5.8,10.4,11.5l0.3,2.7l-66.3,0.3l-0.1-28.7L251.9,557.7z" />
	<path
		fill="#142251"
		d="M261.1,563.4c0,0-4.1-13.1,0.7-15.2C268.7,545,267.5,556.2,261.1,563.4z" />
	<path
		fill="#142251"
		d="M261.3,563.3c0,0-10.5-8.8-14.4-5.2C241.4,563.3,252.1,566.5,261.3,563.3z" />
	<path fill="#142251" d="M297,586.6l-66.8,0.3l0-5.9l66.8-0.3L297,586.6z" />
	<path
		fill="#142251"
		d="M214.4,411l14.4,131.4h25.6l-3.9-134c-0.3-10.1-8.8-18-19-17.6C221.1,391.4,213.2,400.6,214.4,411z" />
	<path fill="#142251" d="M220.6,97.9h-8.4l3,7.1L220.6,97.9z" />
	<path
		fill="#142251"
		d="M199.6,122.3c-9.7,0-17.6-7.9-17.6-17.6V67.3h35.2v37.4C217.2,114.4,209.4,122.3,199.6,122.3z" />
	<path
		fill="#142251"
		d="M203.3,122.3l-10.6-14.7c-1.4-2.4-3.4-4.5-5.7-6.2l-4.4-3c-0.9-0.6-2.2-0.7-3.1-0.2l-4.4,2.5
	c-1,0.6-1.6,1.7-1.4,2.8l1.8,13.7c0.2,1.4,1.9,1.9,2.9,0.9l9.7-9.8c0.5-0.5,1.5-0.5,1.9,0.1l13.4,16.2V122.3z" />
	<path
		fill="#142251"
		d="M203.3,122.3l16.6-23.9c0.5-0.7,0.5-0.7,1.3-0.2l3.6,2.5c0.8,0.6,1.3,1.7,1.2,2.8l0.6,13.7
	c-0.1,1.4-1.5,1.9-2.3,0.9l-7.1-9.8c-0.4-0.5-1.2-0.5-1.6,0.1l-12.3,16.2V122.3z" />
	<path
		fill="#142251"
		d="M229.5,20.5c-1.4-5.2-4.7-12.6-16.5-18.1c-19.5-9.1-29.8,10.2-29.8,10.2c-5.3-0.6-9.6,1.3-12.1,6.3
	c-2.3,4.7,0,13.6,0.7,16.7l4.3,19.7l3.8-18.7c3.7-12.3,9.3-17.3,9.3-17.3l17.8-1.4l18.9,35.7l3.7-21.1c0.5-2.7,0.7-5.4,0.5-8.1
	C229.9,22.8,229.8,21.4,229.5,20.5z" />
	<path
		fill="#142251"
		d="M222.5,49.3c0,0,2.4-3.8,7.3-1.9c4.9,1.9,2.7,13.8-4.7,15.3c0,0-2.6,0.6-4.7-1.2
	C220.4,61.4,222.2,52.6,222.5,49.3z" />
	<path
		fill="#142251"
		d="M177,49.1c0,0-2.9-3.7-7.6-1.8c-4.8,2-2.7,13.8,4.7,15.3c0,0,2.6,0.6,4.7-1.2C178.8,61.4,177.2,52.5,177,49.1z" />
	<path
		fill="#142251"
		d="M227.1,38c0,7.2-0.7,22.2-5.1,31.1c-4.1,8.4-11,12.9-20,13.1c-9,0.3-15.7-3.2-21-14.1
	c-5.4-10.9-5.1-30.1-5.1-30.1s0-25.7,25.4-25.7C227.9,12.5,227.1,38,227.1,38z" />
	<path
		fill="#e4e7f1"
		d="M339.5,130.1c4.6,23,16.9,74.5,23.1,100.3c2.1,8.6-3,17.4-11.6,19.9c-9.1,2.6-18.5-2.8-20.7-12l-24.9-101.1
	c-2.1-9.8,4.4-19.4,14.3-20.9C328.9,114.9,337.6,121,339.5,130.1z" />
	<path
		fill="#e4e7f1"
		d="M371.7,336.8c4.2-0.9,6.9-5,6-9.2l-4-19c-0.9-4.2-5-6.9-9.2-6c-4.2,0.9-6.9,5-6,9.2l4,19
	C363.4,335,367.5,337.7,371.7,336.8z" />
	<path
		fill="#e4e7f1"
		d="M358.8,335.3c1.6-3.9,3.6-5.2,3.6-5.2c-0.8-3.6,1.6-7.2,5.2-7.8l2.6-0.4c3.4-0.6,6.6,1.6,7.4,4.9l0,0.2
	c0,0,4.7,8.6,5.8,20.4c1.4,15.3-5.1,23-9.8,23.1c-4.5,0.1-7-17.8-8.1-24.5l-2.8,6.7c-0.4,0.9-1.2,1.4-2.1,1.3
	c-1-0.1-1.8-0.9-1.9-1.8l-1-7.8C357.4,341.3,357.7,338.1,358.8,335.3z" />
	<path
		fill="#e4e7f1"
		d="M362.6,230.4l21.2,86.8l-32.3,8.8L330,237.2c-2.1-9.4,4.2-18.6,13.7-20C352.5,215.8,360.9,221.6,362.6,230.4z" />
	<path
		fill="#e4e7f1"
		d="M296.5,101.9l-16.8,0.2l-16.3-0.2l-32.3,14.8l4,129.2h89.8l0.5-129.6L296.5,101.9z" />
	<path
		fill="#e4e7f1"
		d="M218.4,130.1c-4.6,23-16.9,74.5-23.1,100.3c-2.1,8.6,3,17.4,11.5,19.9c9.1,2.6,18.5-2.8,20.7-12l24.9-101.1
	c2.1-9.8-4.4-19.4-14.3-20.9C228.9,114.9,220.2,121,218.4,130.1z" />
	<path
		fill="#e4e7f1"
		d="M186.2,336.8c-4.2-0.9-6.9-5-6-9.2l4-19c0.9-4.2,5-6.9,9.2-6c4.2,0.9,6.9,5,6,9.2l-4,19
	C194.5,335,190.4,337.7,186.2,336.8z" />
	<path
		fill="#e4e7f1"
		d="M199,335.3c-1.6-3.9-3.6-5.2-3.6-5.2c0.8-3.6-1.6-7.2-5.2-7.8l-2.6-0.4c-3.4-0.6-6.6,1.6-7.4,4.9l0,0.2
	c0,0-4.7,8.6-5.8,20.4c-1.4,15.3,5.1,23,9.8,23.1c4.5,0.1,7-17.8,8.1-24.5l2.8,6.7c0.4,0.9,1.2,1.4,2.1,1.3c1-0.1,1.8-0.9,1.9-1.8
	l1-7.8C200.5,341.3,200.2,338.1,199,335.3z" />
	<path
		fill="#e4e7f1"
		d="M195.2,230.4L174,317.2l32.3,8.8l21.6-88.8c2.1-9.4-4.2-18.6-13.7-20C205.3,215.8,197,221.6,195.2,230.4z" />
	<path fill="#e4e7f1" d="M328.8,295h-94.6l0.9-50.5h89.5L328.8,295z" />
	<path
		fill="#e4e7f1"
		d="M233.9,294.4L231,407.9c-0.3,10.2,7.9,18.7,18.1,18.7c9.3,0,17.1-7,18-16.2l11.4-112.9
	c1.4-13.2-9-24.8-22.3-24.8C244.2,272.8,234.3,282.4,233.9,294.4z" />
	<path
		fill="#e4e7f1"
		d="M229.8,557.7l2.3-37.4l17.5,0.1l-2.8,37.3L229.8,557.7z" />
	<path
		fill="#e4e7f1"
		d="M248.2,557.5h-19.9l-13.3,10.9c-3.2,2.3-5.2,6.2-5.2,10.4v2.3l44.8-0.3v-5.9c0-2.2-0.5-4.4-1.6-6.3L248.2,557.5
	z" />
	<path fill="#e4e7f1" d="M255.5,586.8l-46.6,0.2l0-6.1l46.6-0.2L255.5,586.8z" />
	<path
		fill="#e4e7f1"
		d="M233.9,563c0,0-4.1-13.1-9.3-12.1C217.1,552.4,224.5,560.8,233.9,563z" />
	<path
		fill="#e4e7f1"
		d="M267.2,411l-14.4,131.4h-25.6l3.9-134c0.3-10.1,8.8-18,19-17.6C260.5,391.4,268.4,400.6,267.2,411z" />
	<path
		fill="#e4e7f1"
		d="M328.6,294.4l4.9,113.5c0.3,10.2-7.9,18.7-18.1,18.7c-9.3,0-17.1-7-18-16.2l-13.4-112.9
	c-1.4-13.2,9-24.8,22.3-24.8C318.3,272.8,328.2,282.4,328.6,294.4z" />
	<path
		fill="#e4e7f1"
		d="M333.6,557.7l-2.3-37.4l-17.5,0.1l2.2,37.4L333.6,557.7z" />
	<path
		fill="#e4e7f1"
		d="M334.9,557.7l21.9,11.9l12.3,2.4c5.7,1.1,9.9,5.8,10.4,11.5l0.3,2.7l-66.3,0.3l-0.1-28.7L334.9,557.7z" />
	<path
		fill="#e4e7f1"
		d="M344.1,563.4c0,0-4.1-13.1,0.7-15.2C351.7,545,350.5,556.2,344.1,563.4z" />
	<path
		fill="#e4e7f1"
		d="M344.3,563.3c0,0-10.5-8.8-14.4-5.2C324.4,563.3,335.1,566.5,344.3,563.3z" />
	<path fill="#e4e7f1" d="M380,586.6l-66.8,0.3l0-5.9l66.8-0.3L380,586.6z" />
	<path
		fill="#e4e7f1"
		d="M297.4,411l14.4,131.4h25.6l-3.9-134c-0.3-10.1-8.8-18-19-17.6C304.1,391.4,296.2,400.6,297.4,411z" />
	<path fill="#e4e7f1" d="M303.6,97.9h-8.4l3,7.1L303.6,97.9z" />
	<path
		fill="#e4e7f1"
		d="M282.6,122.3c-9.7,0-17.6-7.9-17.6-17.6V67.3h35.2v37.4C300.2,114.4,292.4,122.3,282.6,122.3z" />
	<path
		fill="#e4e7f1"
		d="M286.3,122.3l-10.6-14.7c-1.4-2.4-3.4-4.5-5.7-6.2l-4.4-3c-0.9-0.6-2.2-0.7-3.1-0.2l-4.4,2.5
	c-1,0.6-1.6,1.7-1.4,2.8l1.8,13.7c0.2,1.4,1.9,1.9,2.9,0.9l9.7-9.8c0.5-0.5,1.5-0.5,1.9,0.1l13.4,16.2V122.3z" />
	<path
		fill="#e4e7f1"
		d="M286.3,122.3l16.6-23.9c0.5-0.7,0.5-0.7,1.3-0.2l3.6,2.5c0.8,0.6,1.3,1.7,1.2,2.8l0.6,13.7
	c-0.1,1.4-1.5,1.9-2.3,0.9l-7.1-9.8c-0.4-0.5-1.2-0.5-1.6,0.1l-12.3,16.2V122.3z" />
	<path
		fill="#e4e7f1"
		d="M312.5,20.5c-1.4-5.2-4.7-12.6-16.5-18.1c-19.5-9.1-29.8,10.2-29.8,10.2c-5.3-0.6-9.6,1.3-12.1,6.3
	c-2.3,4.7,0,13.6,0.7,16.7l4.3,19.7l3.8-18.7c3.7-12.3,9.3-17.3,9.3-17.3l17.8-1.4l18.9,35.7l3.7-21.1c0.5-2.7,0.7-5.4,0.5-8.1
	C312.9,22.8,312.8,21.4,312.5,20.5z" />
	<path
		fill="#e4e7f1"
		d="M305.5,49.3c0,0,2.4-3.8,7.3-1.9c4.9,1.9,2.7,13.8-4.7,15.3c0,0-2.6,0.6-4.7-1.2
	C303.4,61.4,305.2,52.6,305.5,49.3z" />
	<path
		fill="#e4e7f1"
		d="M259.7,49.1c0,0-2.9-3.7-7.6-1.8c-4.8,2-2.7,13.8,4.7,15.3c0,0,2.6,0.6,4.7-1.2
	C261.5,61.4,259.9,52.5,259.7,49.1z" />
	<path
		fill="#e4e7f1"
		d="M310.1,38c0,7.2-0.7,22.2-5.1,31.1c-4.1,8.4-11,12.9-20,13.1c-9,0.3-15.7-3.2-21-14.1
	c-5.4-10.9-5.1-30.1-5.1-30.1s0-25.7,25.4-25.7C310.9,12.5,310.1,38,310.1,38z" />
</svg>
